<svg xmlns="http://www.w3.org/2000/svg" width="90" height="23" viewBox="0 0 90 23">
    <path fill="#ffffff" fill-rule="evenodd" d="M5.936 0c1.422 0 2.528.164 3.309.492.785.328 1.517.817 2.197 1.47L9.398 3.924c-.68-.784-1.632-1.175-2.86-1.175-1.227 0-2.008.277-2.35.833-.341.556-.341 1.028 0 1.423.342.392 1.123.686 2.35.88a7.817 7.817 0 0 1 3.527 1.226c1.053.69 1.583 1.784 1.583 3.287 0 1.175-.565 2.19-1.692 3.04-1.126.85-2.44 1.276-3.937 1.276-1.426 0-2.612-.198-3.567-.59C1.5 13.733.68 13.21 0 12.554l2.044-1.958c.68.783 1.837 1.242 3.473 1.372 1.364 0 2.211-.277 2.55-.833.338-.556.338-1.112 0-1.667-.339-.556-1.186-.901-2.55-1.032a8.457 8.457 0 0 1-3.372-1.078C1.123 6.77.614 5.755.614 4.318c0-1.302.579-2.346 1.74-3.136C3.515.395 4.711 0 5.936 0zm6.571 14.714L18.637 0h3.066l6.12 14.704-3.26.01-.92-2.257h-6.948l-.92 2.257h-3.268zm7.745-10.79l-2.33 5.59h4.597l-2.267-5.59zM26.96 0h13.28V2.75h-5.11v11.965H32.07V2.749h-5.11V0zm20.772 0c1.422 0 2.528.164 3.31.492.784.328 1.516.817 2.196 1.47l-2.043 1.962c-.68-.784-1.633-1.175-2.86-1.175-1.228 0-2.009.277-2.35.833-.342.556-.342 1.028 0 1.423.341.392 1.122.686 2.35.88a7.817 7.817 0 0 1 3.526 1.226c1.053.69 1.583 1.784 1.583 3.287 0 1.175-.565 2.19-1.691 3.04-1.127.85-2.442 1.276-3.938 1.276-1.426 0-2.612-.198-3.567-.59-.952-.391-1.772-.914-2.452-1.57l2.044-1.958c.68.783 1.838 1.242 3.473 1.372 1.364 0 2.211-.277 2.55-.833.338-.556.338-1.112 0-1.667-.339-.556-1.186-.901-2.55-1.032a8.457 8.457 0 0 1-3.372-1.078c-1.022-.589-1.531-1.603-1.531-3.04 0-1.302.579-2.346 1.74-3.136C45.311.395 46.508 0 47.732 0zm6.571 14.714L60.433 0H63.5l6.12 14.704-3.26.01-.92-2.257H58.49l-.92 2.257h-3.268zm7.745-10.79l-2.329 5.59h4.596l-2.267-5.59zM89.735.929v-.29l-.265.138V.638H90v9.827l-.391.225-.139-.225v-.138l.265.138v-.29l.126.065-.252.45-9.401-4.914v-.449h.252l.152.08-.278.145.278.145-.152.08-.252-.45L89.609.414l.39.224-.138.225-.126.066zm-8.187 6.648l-9.401 4.913V2.663l9.4 4.914zM89.86.863l-.252-.45a.27.27 0 0 1 .359.104c.07.124.022.279-.107.346zm-.39 9.602H90a.26.26 0 0 1-.265.256.26.26 0 0 1-.265-.256zm-9.01-5.138l-.253.45a.251.251 0 0 1-.107-.347.27.27 0 0 1 .36-.103zM0 18.505h4.03v.834H2.48v3.632h-.93v-3.632H0v-.834zm5.519 2.454v2.012H4.65v-4.466h.868v1.757c.21-.18.457-.269.744-.269.394 0 .693.115.9.343.206.228.31.492.31.79v1.845h-.868v-1.637c0-.2-.052-.353-.156-.462-.103-.11-.26-.167-.468-.172a.627.627 0 0 0-.462.259zm2.38.523c0-.437.143-.794.433-1.072.29-.277.662-.417 1.117-.417.454 0 .816.14 1.085.417.269.278.403.635.403 1.072v.298h-2.14a.524.524 0 0 0 .217.372c.125.089.269.134.435.134.289 0 .547-.08.775-.238l.496.475c-.228.298-.65.448-1.271.448-.455 0-.828-.14-1.117-.417-.29-.279-.434-.635-.434-1.072zm2.17-.298a.434.434 0 0 0-.186-.372.723.723 0 0 0-.434-.134.726.726 0 0 0-.435.134.433.433 0 0 0-.186.372h1.241zm3.507-2.68h.991l1.321 3.273 1.347-3.272h.992l-1.858 4.466h-.93l-1.863-4.466zM19.696 23c-.451 0-.827-.145-1.128-.436a1.442 1.442 0 0 1-.454-1.082c0-.433.152-.794.454-1.083.301-.29.677-.435 1.128-.435.45 0 .826.145 1.13.435.3.29.451.65.451 1.083 0 .433-.15.793-.452 1.084-.303.29-.678.434-1.13.434zm-.003-.72a.758.758 0 0 0 .573-.228.78.78 0 0 0 .22-.567.785.785 0 0 0-.22-.568.76.76 0 0 0-.577-.23.755.755 0 0 0-.57.23.79.79 0 0 0-.22.568c0 .227.074.416.22.567a.761.761 0 0 0 .574.228zm2.186.69v-2.98h1.228v2.98H21.88zm-.043-3.691c0-.119.058-.218.175-.299.117-.08.276-.12.473-.12.212 0 .375.04.492.12.118.08.176.18.176.299s-.058.219-.176.298c-.117.079-.277.119-.483.119-.205 0-.365-.04-.482-.12-.117-.078-.175-.178-.175-.297zm3.047 3.692c-.412 0-.774-.124-1.085-.372a1.181 1.181 0 0 1-.464-.968v-.297c0-.398.154-.72.464-.969.31-.248.674-.372 1.089-.372.496 0 .909.169 1.237.506l-.62.447a.874.874 0 0 0-.62-.268.734.734 0 0 0-.543.238.782.782 0 0 0-.232.566c0 .218.072.406.217.566a.723.723 0 0 0 .557.238c.228 0 .435-.09.62-.269l.62.447c-.33.338-.743.506-1.24.506zm1.697-1.489c0-.437.144-.794.434-1.072.289-.277.662-.417 1.117-.417.454 0 .816.14 1.085.417.268.278.403.635.403 1.072v.298h-2.14a.524.524 0 0 0 .217.372c.125.089.268.134.435.134.289 0 .547-.08.774-.238l.497.475c-.228.298-.651.448-1.271.448-.455 0-.828-.14-1.117-.417-.29-.279-.434-.635-.434-1.072zm2.17-.298a.434.434 0 0 0-.185-.372.723.723 0 0 0-.434-.134.726.726 0 0 0-.435.134.433.433 0 0 0-.186.372h1.24zM34.507 23c-.451 0-.827-.145-1.129-.436a1.442 1.442 0 0 1-.453-1.082c0-.433.152-.794.453-1.083.302-.29.678-.435 1.129-.435.45 0 .826.145 1.129.435.302.29.452.65.452 1.083 0 .433-.15.793-.452 1.084-.303.29-.678.434-1.13.434zm-.004-.72a.758.758 0 0 0 .574-.228.78.78 0 0 0 .22-.567.785.785 0 0 0-.22-.568.76.76 0 0 0-.577-.23.755.755 0 0 0-.57.23.79.79 0 0 0-.22.568c0 .227.074.416.22.567a.761.761 0 0 0 .573.228zm2.32.69V20.59h-.465v-.673h.466v-.398a.94.94 0 0 1 .31-.73c.206-.189.486-.283.837-.283.371 0 .661.1.868.297l-.463.495c-.057-.062-.16-.092-.31-.092a.38.38 0 0 0-.268.096c-.068.065-.103.176-.103.336v.28h.464v.672h-.464v2.381h-.871zm4.49-4.467h.928v4.468h-.927v-4.468zm2.658 2.575v1.893h-.868V20.08l.868-.09v.272c.21-.18.458-.269.745-.269.393 0 .693.115.9.343.206.228.31.492.31.79v1.845h-.869v-1.637c0-.2-.051-.353-.155-.462-.103-.11-.26-.167-.468-.172-.18.01-.334.137-.463.378zm3.523-2.573v1.73c.145-.141.371-.221.682-.242.476 0 .853.15 1.132.447.278.298.418.646.418 1.042 0 .397-.14.745-.418 1.042-.28.298-.656.447-1.132.447-.223 0-.45-.08-.682-.238v.238h-.868v-4.463l.868-.003zm0 3.245c.041.298.258.477.65.536.539-.02.818-.308.838-.863-.061-.457-.34-.704-.837-.742-.393.058-.61.253-.651.587v.482zM51.747 23c-.451 0-.827-.145-1.128-.436a1.442 1.442 0 0 1-.454-1.082c0-.433.152-.794.454-1.083.301-.29.677-.435 1.128-.435.45 0 .826.145 1.13.435.3.29.451.65.451 1.083 0 .433-.15.794-.452 1.084-.303.29-.678.434-1.13.434zm-.003-.72a.758.758 0 0 0 .573-.228.78.78 0 0 0 .22-.567.785.785 0 0 0-.22-.568.76.76 0 0 0-.577-.23.755.755 0 0 0-.57.23.79.79 0 0 0-.22.568c0 .227.074.416.22.567a.761.761 0 0 0 .574.228zm4.044-.366V19.99h.868v2.98h-.868v-.27a1.11 1.11 0 0 1-.745.267c-.393 0-.692-.113-.899-.342a1.14 1.14 0 0 1-.31-.788V19.99h.868v1.638c0 .198.052.352.156.462.102.108.259.166.467.172.18-.012.334-.128.463-.348zm2.486-.836v1.893h-.868V20.08l.868-.09v.272c.21-.18.457-.269.744-.269.394 0 .694.115.9.343.206.228.31.492.31.79v1.845h-.868v-1.637c0-.2-.052-.353-.155-.462-.103-.11-.26-.167-.468-.172-.18.01-.335.137-.463.378zm5.625-2.57v4.463h-.868v-.238c-.232.158-.46.238-.683.238-.475 0-.852-.149-1.131-.447a1.474 1.474 0 0 1-.418-1.042c0-.396.138-.744.418-1.042.28-.297.656-.447 1.131-.447.31.02.538.101.683.242v-1.73l.868.003zm-.868 3.242v-.482c-.041-.334-.258-.529-.651-.587-.497.038-.776.285-.837.742.02.555.3.843.837.863.393-.06.61-.238.65-.536zm4.149-3.245h4.03v.834h-1.55v3.632h-.93v-3.632h-1.55v-.834zM72.374 23c-.45 0-.826-.145-1.128-.436a1.442 1.442 0 0 1-.453-1.082c0-.433.151-.794.453-1.083.302-.29.677-.435 1.128-.435.451 0 .827.145 1.13.435.301.29.452.65.452 1.083 0 .433-.15.793-.452 1.084-.303.29-.679.434-1.13.434zm-.003-.72a.758.758 0 0 0 .574-.228.78.78 0 0 0 .22-.567.785.785 0 0 0-.22-.568.76.76 0 0 0-.577-.23.755.755 0 0 0-.57.23.79.79 0 0 0-.22.568c0 .227.073.416.22.567a.761.761 0 0 0 .573.228zm4.045-.366V19.99h.867v2.98h-.867v-.27a1.11 1.11 0 0 1-.746.267c-.392 0-.692-.113-.898-.342a1.14 1.14 0 0 1-.31-.788V19.99h.868v1.638c0 .198.051.352.155.462.103.108.26.166.468.172.18-.012.333-.128.463-.348zm2.418-1.592a1.11 1.11 0 0 1 .81-.329c.1 0 .197.009.288.025l-.137.82c-.101-.087-.245-.133-.434-.138-.21.013-.386.16-.527.44v1.83h-.868v-2.89l.868-.09v.332zm1.681 2.649v-2.98h1.228v2.98h-1.228zm-.043-3.692c0-.119.058-.218.175-.299.117-.08.275-.12.473-.12.211 0 .374.04.491.12.118.08.177.18.177.299s-.059.219-.177.298c-.117.079-.277.119-.482.119-.205 0-.365-.04-.482-.12-.117-.078-.175-.178-.175-.297zm2.728.697c.291 0 .518.034.679.1.162.069.312.168.453.301l-.484.525a.672.672 0 0 0-.527-.241c-.209 0-.348.037-.42.11-.07.076-.07.143 0 .204.072.06.211.11.42.15.308.028.56.112.757.253.196.14.294.385.294.735 0 .282-.115.5-.347.655a1.426 1.426 0 0 1-.81.232c-.293 0-.538-.04-.733-.12a1.6 1.6 0 0 1-.504-.323l.48-.521c.141.16.36.254.655.28.238 0 .391-.037.46-.112.07-.075.08-.149.032-.223-.05-.074-.213-.125-.492-.15a1.748 1.748 0 0 1-.693-.224c-.21-.121-.315-.35-.315-.685 0-.307.12-.541.359-.704.238-.162.483-.242.736-.242zm2.661 1.09v1.905h-.869V20.08l.87-.09v.266c.193-.175.442-.263.743-.263.393 0 .693.115.899.343.227-.228.568-.343 1.023-.343.393 0 .693.115.9.343.206.228.31.492.31.79v1.845h-.869v-1.637c0-.2-.046-.353-.138-.462-.094-.11-.245-.167-.453-.172-.172.01-.321.12-.447.327-.01.06-.016.124-.016.187v1.756h-.868v-1.636c0-.2-.046-.353-.14-.462-.093-.11-.243-.167-.453-.172-.19.01-.354.133-.492.365z"/>
</svg>
